# xmcd
#
# Track frame offsets:
#	150
#	9545
#	20370
#	29492
#	43460
#	53002
#	62757
#	71930
#	83992
#	103815
#	114717
#	125840
#
# Disc length: 1815
#
# Revision: 3
# Processed by: cddbd v1.5.1PL0 Copyright (c) Steve Scherf et al.
# Submitted via: DiscPlay 4.0.4
# Normalized: r2:DSETVAR1,TDELIM( - )
#
DISCID=b107150c
DTITLE=Various Artist - Six Days On The Road
DYEAR=1900
DGENRE=
TTITLE0=Dave Dudley - Six Days On The Road
TTITLE1=Jerry Lee Lewis - C.C. Rider
TTITLE2=Tom Stanley - Truck Drivers Wife
TTITLE3=Paul Martin - Take Me Home Country Roads
TTITLE4=Rod Hart - Truck Drivin' Son Of A Gun
TTITLE5=Gordon Terry - Forty Miles Of Bad Road
TTITLE6=Charlie Walker - Truck Drivin' Man
TTITLE7=Sleepy La Beef - Thunder Road
TTITLE8=Orion - Movin' On
TTITLE9=Johnny Cash - Wide Open Road
TTITLE10=Leroy Van Dyke - Moving Down The Canyon
TTITLE11=Rod Hart - Knight Of The Road
EXTD=
EXTT0=
EXTT1=
EXTT2=
EXTT3=
EXTT4=
EXTT5=
EXTT6=
EXTT7=
EXTT8=
EXTT9=
EXTT10=
EXTT11=
PLAYORDER=
